<?xml version="1.0" encoding="utf-8"?>
<!-- Svg Vector Icons : http://www.onlinewebfonts.com/icon -->
<!DOCTYPE svg PUBLIC "-//W3C//DTD SVG 1.1//EN" "http://www.w3.org/Graphics/SVG/1.1/DTD/svg11.dtd">
<svg version="1.1" xmlns="http://www.w3.org/2000/svg" xmlns:xlink="http://www.w3.org/1999/xlink" x="0px" y="0px" viewBox="0 0 256 256" enable-background="new 0 0 256 256" xml:space="preserve">
<metadata> Svg Vector Icons : http://www.onlinewebfonts.com/icon </metadata>
<g><g><path fill="#014164" d="M107.5,179.8H103c-5.6,0-10.1-4.6-10.1-10.1V86.4c0-5.6,4.6-10.1,10.1-10.1h4.6c5.6,0,10.1,4.6,10.1,10.1v83.2C117.6,175.2,113.1,179.8,107.5,179.8z"/><path fill="#014164" d="M153,179.8h-4.6c-5.6,0-10.1-4.6-10.1-10.1V86.4c0-5.6,4.6-10.1,10.1-10.1h4.6c5.6,0,10.1,4.6,10.1,10.1v83.2C163.2,175.2,158.7,179.8,153,179.8z"/><path fill="#014164" d="M128,18c60.6,0,110,49.3,110,110c0,60.6-49.3,110-110,110c-60.6,0-110-49.3-110-110C18,67.4,67.4,18,128,18 M128,10C62.8,10,10,62.8,10,128c0,65.2,52.8,118,118,118c65.2,0,118-52.8,118-118C246,62.8,193.2,10,128,10L128,10z"/></g></g>
</svg>