<?xml version="1.0" encoding="utf-8"?>
<!-- Svg Vector Icons : http://www.onlinewebfonts.com/icon -->
<!DOCTYPE svg PUBLIC "-//W3C//DTD SVG 1.1//EN" "http://www.w3.org/Graphics/SVG/1.1/DTD/svg11.dtd">
<svg version="1.1" xmlns="http://www.w3.org/2000/svg" xmlns:xlink="http://www.w3.org/1999/xlink" x="0px" y="0px" viewBox="0 0 256 256" enable-background="new 0 0 256 256" xml:space="preserve">
<metadata> Svg Vector Icons : http://www.onlinewebfonts.com/icon </metadata>
<g><g><g><path fill="#014164" d="M116.7,10.3C88.9,13.2,63.9,25,44.4,44.5c-18.7,18.7-30,41.7-33.9,69c-0.8,5.5-0.8,23.6,0,29.1c3.9,27.4,15.1,50.3,33.9,69c18.8,18.7,41.6,29.9,69,33.9c5.4,0.8,23.6,0.8,29.1,0c14-2,25.9-5.6,37.6-11.5c12.8-6.4,22-13,31.8-22.9c18.7-18.8,29.6-41.3,33.5-68.5c0.8-5.4,0.8-23.6,0-29.1c-3.9-27.4-15.1-50.3-33.9-69c-18.3-18.3-40.6-29.5-66.9-33.5C138.8,10.1,122.6,9.6,116.7,10.3z M138.7,103.3c15.1,10.6,27.9,19.8,28.7,20.5c2.6,2.4,2.4,7-0.5,9.1c-0.7,0.5-13.4,9.5-28.3,20c-16.7,11.8-27.6,19.2-28.5,19.4c-2.2,0.4-3.8-0.1-5.5-1.9l-1.5-1.5v-40.6c0-44.8-0.2-41.6,3-43.6C109.2,82.5,108.8,82.3,138.7,103.3z"/></g></g></g>
</svg>